<?xml version="1.0" standalone="no"?>
<!DOCTYPE svg PUBLIC "-//W3C//DTD SVG 20010904//EN"
 "http://www.w3.org/TR/2001/REC-SVG-20010904/DTD/svg10.dtd">
<svg version="1.0" xmlns="http://www.w3.org/2000/svg"
 width="16.000000pt" height="16.000000pt" viewBox="0 0 16.000000 16.000000"
 preserveAspectRatio="xMidYMid meet">

<g transform="translate(0.000000,16.000000) scale(0.100000,-0.100000)"
fill="#000000" stroke="none">
<path d="M32 108 c-16 -16 -15 -43 1 -57 18 -14 30 -2 16 16 -9 9 -8 17 0 27
15 17 -1 30 -17 14z"/>
<path d="M65 100 c-17 -19 -17 -21 0 -40 20 -22 43 -17 24 6 -9 11 -9 17 0 28
19 23 -4 28 -24 6z"/>
<path d="M105 100 c-17 -19 -17 -21 0 -40 20 -22 43 -17 24 6 -9 11 -9 17 0
28 19 23 -4 28 -24 6z"/>
</g>
</svg>
