<svg width="138" height="75" viewBox="0 0 138 75" fill="none" xmlns="http://www.w3.org/2000/svg">
<path fill-rule="evenodd" clip-rule="evenodd" d="M101.172 37.0503L69.1221 5L37.0717 37.0503L69.1221 69.1007L85.1466 53.0761L69.1221 37.0515L85.1473 21.0264L101.172 37.0509L101.172 37.0503Z" fill="#2D5CB7"/>
<path fill-rule="evenodd" clip-rule="evenodd" d="M64.1006 37.0503L32.0503 5L-3.93874e-05 37.0503L32.0503 69.1007L48.0749 53.0761L32.0503 37.0515L48.0755 21.0264L64.1 37.0509L64.1006 37.0503Z" fill="#2D5CB7"/>
<path fill-rule="evenodd" clip-rule="evenodd" d="M138 37.3726L105.949 5.32227L73.8991 37.3726L105.949 69.4229L121.974 53.3984L105.949 37.3738L121.975 21.3486L137.999 37.3732L138 37.3726Z" fill="#2D5CB7"/>
<path d="M90.44 61H78.632L67.368 40.456L61.064 48.296V61H49.736V14.728H61.064V34.664L76.2 14.728H88.52L75.176 32.52L90.44 61Z" fill="white"/>
</svg>
